<?xml version="1.0" encoding="UTF-8"?> <svg xmlns="http://www.w3.org/2000/svg" id="Слой_1" data-name="Слой 1" viewBox="0 0 53.63 11.28"> <title>11svg</title> <path d="M35.86,4.79l-3,8a0.38,0.38,0,0,1-.41.29H31.24a0.31,0.31,0,0,1-.34-0.24l-3.09-8h1.33a0.31,0.31,0,0,1,.36.24l2.4,6.67,2.25-6.68a0.34,0.34,0,0,1,.4-0.28h0Z" transform="translate(-2.34 -2.18)"></path> <path d="M48.77,12.78a0.19,0.19,0,0,0,.15.16H50.2s0-3.13,0-4.55a4.34,4.34,0,0,1,.08-0.87,2.57,2.57,0,0,1,3.23-1.62,1.93,1.93,0,0,1,1,2.06c0,1.54,0,4.94,0,4.94h1.14a0.24,0.24,0,0,0,.3-0.3c0-1.65,0-3.3-.05-4.95a4.12,4.12,0,0,0-.26-1.4,2.74,2.74,0,0,0-2.59-1.8,3.05,3.05,0,0,0-2.77,1.19,2.55,2.55,0,0,0-.17.28V5.07c0-.34,0-0.39-0.4-0.39H49.1c-0.36,0-.4,0-0.39.39Z" transform="translate(-2.34 -2.18)"></path> <path d="M13.36,2.58c0-.34,0-0.39.39-0.39h0.64c0.36,0,.4,0,0.4.39L14.86,11a0.64,0.64,0,0,0,.75.74,0.19,0.19,0,0,1,.24.24v1.24H15.7a2.4,2.4,0,0,1-1.55-.37,1.68,1.68,0,0,1-.66-1.09A4.52,4.52,0,0,1,13.42,11Z" transform="translate(-2.34 -2.18)"></path> <path d="M6.72,13.23V12.09A3,3,0,1,1,9.35,7.81,3,3,0,0,1,9,11a2.92,2.92,0,0,1-.27.29L6.31,7.2A0.23,0.23,0,0,0,6,7.12H6l-0.73.43a0.23,0.23,0,0,0-.11.3v0l3.11,5.27A4.33,4.33,0,1,0,4.46,5.4l-0.2.13a4.33,4.33,0,0,0,2.21,7.93,0.23,0.23,0,0,0,.23-0.22h0" transform="translate(-2.34 -2.18)"></path> <path d="M43.76,12.74A4.33,4.33,0,0,0,46.18,9,0.23,0.23,0,0,0,46,8.81H44.81a3,3,0,1,1-4.28-2.63,3,3,0,0,1,3.16.37,2.92,2.92,0,0,1,.29.27l-4.06,2.4a0.23,0.23,0,0,0-.08.31h0l0.43,0.73a0.23,0.23,0,0,0,.31.08h0l5.27-3.11A4.33,4.33,0,1,0,38.11,11l0.13,0.2a4.36,4.36,0,0,0,5.51,1.49" transform="translate(-2.34 -2.18)"></path> <path d="M25.67,11.34A0.23,0.23,0,0,0,25.59,11h0l-1-.56a3,3,0,1,1-2.38-4.41A3,3,0,0,1,24.77,8a2.92,2.92,0,0,1,.12.38l-4.49,0a0.23,0.23,0,0,0-.23.23h0V9.45a0.23,0.23,0,0,0,.23.23h0l5.9-.05A4.33,4.33,0,1,0,17.68,9q0,0.12,0,.24a4.33,4.33,0,0,0,8,2.05" transform="translate(-2.34 -2.18)"></path> </svg> 